<svg width="375" height="545" viewBox="0 0 375 545" fill="none" xmlns="http://www.w3.org/2000/svg">
<mask id="mask0" mask-type="alpha" maskUnits="userSpaceOnUse" x="0" y="0" width="375" height="545">
<rect width="375" height="545" fill="white"/>
</mask>
<g mask="url(#mask0)">
<path d="M416.538 61.9804C416.538 139.976 326.608 203.204 215.675 203.204C104.741 203.204 14.8115 139.976 14.8115 61.9804V61.0197C14.8115 -16.9762 104.741 -80.2043 215.675 -80.2043C326.608 -80.2043 416.538 -16.9762 416.538 61.0197V61.9804Z" fill="#3E4062"/>
<path opacity="0.5" d="M561.72 62.4606C561.72 196.831 406.791 305.76 215.676 305.76C24.5603 305.76 -130.369 196.831 -130.369 62.4606V60.5392C-130.369 -73.8312 24.5603 -182.76 215.676 -182.76C406.791 -182.76 561.72 -73.8312 561.72 60.5392V62.4606Z" stroke="#878D92"/>
<path d="M445.574 61.9804C445.574 151.251 342.645 223.619 215.675 223.619C88.7049 223.619 -14.2246 151.251 -14.2246 61.9804V61.0197C-14.2246 -28.2511 88.7049 -100.619 215.675 -100.619C342.645 -100.619 445.574 -28.2511 445.574 61.0197V61.9804Z" stroke="#878D92"/>
</g>
</svg>
