<svg width="828" height="400" viewBox="0 0 828 400" fill="none" xmlns="http://www.w3.org/2000/svg">
<mask id="mask0" mask-type="alpha" maskUnits="userSpaceOnUse" x="0" y="0" width="828" height="400">
<rect width="828" height="400" fill="white"/>
</mask>
<g mask="url(#mask0)">
<path d="M587 2C587 164.372 455.372 296 293 296C130.628 296 -1 164.372 -1 2V0C-1 -162.372 130.628 -294 293 -294C455.372 -294 587 -162.372 587 0V2Z" fill="#3E4062"/>
<path opacity="0.5" d="M799.5 3C799.5 282.732 572.732 509.5 293 509.5C13.2678 509.5 -213.5 282.732 -213.5 3V-1C-213.5 -280.732 13.2678 -507.5 293 -507.5C572.732 -507.5 799.5 -280.732 799.5 -1V3Z" stroke="#878D92"/>
<path d="M629.5 2C629.5 187.844 478.844 338.5 293 338.5C107.156 338.5 -43.5 187.844 -43.5 2V0C-43.5 -185.844 107.156 -336.5 293 -336.5C478.844 -336.5 629.5 -185.844 629.5 0V2Z" stroke="#878D92"/>
</g>
</svg>
