<svg width="1438" height="600" viewBox="0 0 1438 600" fill="none" xmlns="http://www.w3.org/2000/svg">
<mask id="mask0" mask-type="alpha" maskUnits="userSpaceOnUse" x="0" y="0" width="1440" height="600">
<rect width="1440" height="600" fill="#C4C4C4"/>
</mask>
<g mask="url(#mask0)">
<path fill-rule="evenodd" clip-rule="evenodd" d="M1917.18 627.75L1621.83 1358.75L892.355 1064.02L1150.24 425.74C1170.93 374.534 1229.21 349.794 1280.42 370.483L1917.18 627.75L1917.18 627.75ZM702.591 135.763C904.031 217.15 1001.35 446.426 919.965 647.865L919.349 649.39C837.962 850.83 608.687 948.152 407.247 866.765C205.807 785.378 108.486 556.1 189.872 354.662L190.488 353.137C271.875 151.697 501.152 54.3759 702.591 135.763V135.763ZM1413.29 -576.272L1155.4 62.0105C1134.71 113.219 1076.43 137.957 1025.22 117.268L388.465 -139.999L683.809 -871L1413.29 -576.272V-576.272ZM2264.66 -232.296L1969.31 498.705L1332.55 241.438C1281.35 220.749 1256.61 162.466 1277.3 111.259L1535.18 -527.024L2264.66 -232.296Z" fill="url(#paint0_linear)"/>
</g>
<defs>
<linearGradient id="paint0_linear" x1="693.91" y1="-866.919" x2="1625.98" y2="1348.68" gradientUnits="userSpaceOnUse">
<stop stop-color="#FF8F71"/>
<stop offset="1" stop-color="#FF3E55"/>
</linearGradient>
</defs>
</svg>
