<svg width="375" height="288" viewBox="0 0 375 288" fill="none" xmlns="http://www.w3.org/2000/svg">
<g clip-path="url(#clip0)">
<path opacity="0.08" d="M290.949 143.13C290.949 196.71 244.84 240.145 187.962 240.145C131.084 240.145 84.9756 196.71 84.9756 143.13C84.9756 89.5499 131.084 46.1148 187.962 46.1148C244.84 46.1148 290.949 89.5499 290.949 143.13Z" fill="#2D2E40"/>
<path opacity="0.5" d="M303.417 141.825C303.417 202.132 251.519 251.021 187.5 251.021C123.481 251.021 71.5825 202.132 71.5825 141.825C71.5825 81.5173 123.481 32.6284 187.5 32.6284C251.519 32.6284 303.417 81.5173 303.417 141.825Z" stroke="#2D2E40"/>
<path opacity="0.25" d="M337.592 141.825C337.592 219.912 270.394 283.214 187.5 283.214C104.606 283.214 37.4077 219.912 37.4077 141.825C37.4077 63.7374 104.606 0.435028 187.5 0.435028C270.394 0.435028 337.592 63.7374 337.592 141.825Z" stroke="#2D2E40"/>
<mask id="mask0" mask-type="alpha" maskUnits="userSpaceOnUse" x="36" y="46" width="303" height="190">
<path d="M333.436 46.9849H41.564C39.0135 46.9849 36.9458 48.9326 36.9458 51.3353V231.444C36.9458 233.847 39.0135 235.795 41.564 235.795H333.436C335.987 235.795 338.054 233.847 338.054 231.444V51.3353C338.054 48.9326 335.987 46.9849 333.436 46.9849Z" fill="white"/>
</mask>
<g mask="url(#mask0)">
<g filter="url(#filter0_d)">
<path d="M333.436 46.9849H41.564C39.0135 46.9849 36.9458 48.9326 36.9458 51.3353V231.444C36.9458 233.847 39.0135 235.795 41.564 235.795H333.436C335.987 235.795 338.054 233.847 338.054 231.444V51.3353C338.054 48.9326 335.987 46.9849 333.436 46.9849Z" fill="black"/>
</g>
<path d="M333.436 46.9849H41.564C39.0135 46.9849 36.9458 48.9326 36.9458 51.3353V231.444C36.9458 233.847 39.0135 235.795 41.564 235.795H333.436C335.987 235.795 338.054 233.847 338.054 231.444V51.3353C338.054 48.9326 335.987 46.9849 333.436 46.9849Z" fill="url(#paint0_linear)"/>
<path d="M39.7167 102.257H335.283C335.647 102.257 336.007 102.325 336.344 102.456C336.68 102.587 336.985 102.779 337.243 103.022C337.5 103.264 337.704 103.552 337.843 103.869C337.983 104.185 338.054 104.525 338.054 104.868V233.184C338.054 233.877 337.762 234.54 337.243 235.03C336.723 235.519 336.018 235.794 335.283 235.794H39.7167C38.9818 235.794 38.277 235.519 37.7574 235.03C37.2377 234.54 36.9458 233.877 36.9458 233.184V104.868C36.9458 104.175 37.2377 103.511 37.7574 103.022C38.277 102.532 38.9818 102.257 39.7167 102.257V102.257Z" fill="#2D2E40"/>
<path d="M140.317 68.0811H82.1738C80.6434 68.0811 79.4028 69.2497 79.4028 70.6913V126.122C79.4028 127.564 80.6434 128.732 82.1738 128.732H140.317C141.848 128.732 143.088 127.564 143.088 126.122V70.6913C143.088 69.2497 141.848 68.0811 140.317 68.0811Z" fill="white"/>
<path d="M111.246 116.074C121.427 116.074 129.681 108.282 129.681 98.6699C129.681 89.0577 121.427 81.2655 111.246 81.2655C101.064 81.2655 92.8105 89.0577 92.8105 98.6699C92.8105 108.282 101.064 116.074 111.246 116.074Z" fill="#2D2E40"/>
<path d="M292.826 68.0811H156.473C154.943 68.0811 153.702 69.2497 153.702 70.6913V209.452C153.702 210.893 154.943 212.062 156.473 212.062H292.826C294.357 212.062 295.597 210.893 295.597 209.452V70.6913C295.597 69.2497 294.357 68.0811 292.826 68.0811Z" fill="white"/>
</g>
<path d="M134.852 172.278C156.9 139.742 173.207 122.161 183.772 119.533C199.62 115.592 194.893 156.402 217.71 151.673C240.529 146.943 243.311 105.563 260.57 103.614C277.829 101.664 286.959 139.511 294.499 142.998C299.524 145.323 305.73 140.296 313.116 127.917" stroke="url(#paint1_linear)" stroke-width="8" stroke-linecap="round"/>
</g>
<defs>
<filter id="filter0_d" x="-3.0542" y="26.9849" width="381.108" height="268.81" filterUnits="userSpaceOnUse" color-interpolation-filters="sRGB">
<feFlood flood-opacity="0" result="BackgroundImageFix"/>
<feColorMatrix in="SourceAlpha" type="matrix" values="0 0 0 0 0 0 0 0 0 0 0 0 0 0 0 0 0 0 127 0" result="hardAlpha"/>
<feOffset dy="20"/>
<feGaussianBlur stdDeviation="20"/>
<feColorMatrix type="matrix" values="0 0 0 0 0.421822 0 0 0 0 0.554338 0 0 0 0 0.89371 0 0 0 0.243444 0"/>
<feBlend mode="normal" in2="BackgroundImageFix" result="effect1_dropShadow"/>
<feBlend mode="normal" in="SourceGraphic" in2="effect1_dropShadow" result="shape"/>
</filter>
<linearGradient id="paint0_linear" x1="36.9458" y1="99.5608" x2="277.206" y2="269.331" gradientUnits="userSpaceOnUse">
<stop stop-color="#FF8F71"/>
<stop offset="1" stop-color="#FF3E55"/>
</linearGradient>
<linearGradient id="paint1_linear" x1="134.852" y1="132.151" x2="289.015" y2="199.135" gradientUnits="userSpaceOnUse">
<stop stop-color="#FF8F71"/>
<stop offset="1" stop-color="#FF3E55"/>
</linearGradient>
<clipPath id="clip0">
<rect width="375" height="288" fill="white"/>
</clipPath>
</defs>
</svg>
