<svg width="720" height="1010" viewBox="0 0 720 1010" fill="none" xmlns="http://www.w3.org/2000/svg">
<mask id="mask0" mask-type="alpha" maskUnits="userSpaceOnUse" x="0" y="0" width="720" height="1010">
<rect width="720" height="1010" fill="#C4C4C4"/>
</mask>
<g mask="url(#mask0)">
<path opacity="0.08" d="M854.999 515C854.999 680.685 720.685 815 554.999 815C389.314 815 254.999 680.685 254.999 515V513C254.999 347.315 389.314 213 554.999 213C720.685 213 854.999 347.315 854.999 513V515Z" fill="#2D2E40"/>
<path opacity="0.5" d="M894.5 511C894.5 698.501 742.501 850.5 555 850.5C367.499 850.5 215.5 698.501 215.5 511V509C215.5 321.499 367.499 169.5 555 169.5C742.501 169.5 894.5 321.499 894.5 509V511Z" stroke="#2D2E40"/>
<path opacity="0.25" d="M994.5 511C994.5 753.729 797.729 950.5 555 950.5C312.271 950.5 115.5 753.729 115.5 511V509C115.5 266.271 312.271 69.5 555 69.5C797.729 69.5 994.5 266.271 994.5 509V511Z" stroke="#2D2E40"/>
<mask id="mask1" mask-type="alpha" maskUnits="userSpaceOnUse" x="110" y="311" width="643" height="428">
<path d="M737.001 311H125.001C116.717 311 110.001 317.716 110.001 326V723C110.001 731.284 116.717 738 125.001 738H737.001C745.285 738 752.001 731.284 752.001 723V326C752.001 317.716 745.285 311 737.001 311Z" fill="white"/>
</mask>
<g mask="url(#mask1)">
<g filter="url(#filter0_d)">
<path d="M737.001 311H125.001C116.717 311 110.001 317.716 110.001 326V723C110.001 731.284 116.717 738 125.001 738H737.001C745.285 738 752.001 731.284 752.001 723V326C752.001 317.716 745.285 311 737.001 311Z" fill="black"/>
</g>
<path d="M737.001 311H125.001C116.717 311 110.001 317.716 110.001 326V723C110.001 731.284 116.717 738 125.001 738H737.001C745.285 738 752.001 731.284 752.001 723V326C752.001 317.716 745.285 311 737.001 311Z" fill="url(#paint0_linear)"/>
<path d="M113.001 436H749.001C749.796 436 750.56 436.316 751.122 436.879C751.685 437.441 752.001 438.204 752.001 439V735C752.001 735.796 751.685 736.559 751.122 737.121C750.56 737.684 749.796 738 749.001 738H113.001C112.205 738 111.442 737.684 110.88 737.121C110.317 736.559 110.001 735.796 110.001 735V439C110.001 438.204 110.317 437.441 110.88 436.879C111.442 436.316 112.205 436 113.001 436V436Z" fill="#2D2E40"/>
<path d="M333.309 358.709H203.524C201.867 358.709 200.524 360.052 200.524 361.709V492.874C200.524 494.531 201.867 495.874 203.524 495.874H333.309C334.965 495.874 336.309 494.531 336.309 492.874V361.709C336.309 360.052 334.965 358.709 333.309 358.709Z" fill="white"/>
<path d="M268.416 467.248C290.125 467.248 307.722 449.626 307.722 427.888C307.722 406.15 290.125 388.528 268.416 388.528C246.708 388.528 229.11 406.15 229.11 427.888C229.11 449.626 246.708 467.248 268.416 467.248Z" fill="#2D2E40"/>
<path d="M658.477 358.709H361.939C360.282 358.709 358.939 360.052 358.939 361.709V681.326C358.939 682.983 360.282 684.326 361.939 684.326H658.477C660.134 684.326 661.477 682.983 661.477 681.326V361.709C661.477 360.052 660.134 358.709 658.477 358.709Z" fill="white"/>
</g>
<path d="M319.001 595C366.126 521.633 400.978 481.987 423.558 476.062C457.428 467.176 447.323 559.202 496.093 548.535C544.863 537.869 550.809 444.561 587.696 440.165C624.583 435.768 644.098 521.111 660.211 528.975C670.953 534.216 684.216 522.881 700.001 494.968" stroke="url(#paint1_linear)" stroke-width="8" stroke-linecap="round"/>
</g>
<defs>
<filter id="filter0_d" x="70.0009" y="291" width="722" height="507" filterUnits="userSpaceOnUse" color-interpolation-filters="sRGB">
<feFlood flood-opacity="0" result="BackgroundImageFix"/>
<feColorMatrix in="SourceAlpha" type="matrix" values="0 0 0 0 0 0 0 0 0 0 0 0 0 0 0 0 0 0 127 0" result="hardAlpha"/>
<feOffset dy="20"/>
<feGaussianBlur stdDeviation="20"/>
<feColorMatrix type="matrix" values="0 0 0 0 0.421822 0 0 0 0 0.554338 0 0 0 0 0.89371 0 0 0 0.243444 0"/>
<feBlend mode="normal" in2="BackgroundImageFix" result="effect1_dropShadow"/>
<feBlend mode="normal" in="SourceGraphic" in2="effect1_dropShadow" result="shape"/>
</filter>
<linearGradient id="paint0_linear" x1="110.001" y1="430.052" x2="642.2" y2="784.031" gradientUnits="userSpaceOnUse">
<stop stop-color="#FF8F71"/>
<stop offset="1" stop-color="#FF3E55"/>
</linearGradient>
<linearGradient id="paint1_linear" x1="319.001" y1="504.674" x2="654.854" y2="641.303" gradientUnits="userSpaceOnUse">
<stop stop-color="#FF8F71"/>
<stop offset="1" stop-color="#FF3E55"/>
</linearGradient>
</defs>
</svg>
