<svg width="375" height="375" viewBox="0 0 375 375" fill="none" xmlns="http://www.w3.org/2000/svg">
<mask id="mask0" mask-type="alpha" maskUnits="userSpaceOnUse" x="0" y="0" width="375" height="375">
<rect width="375" height="375" fill="white"/>
</mask>
<g mask="url(#mask0)">
<path opacity="0.08" d="M300.006 212.843C300.006 266.878 249.606 310.682 187.434 310.682C125.262 310.682 74.8618 266.878 74.8618 212.843C74.8618 158.808 125.262 115.005 187.434 115.005C249.606 115.005 300.006 158.808 300.006 212.843Z" fill="#2D2E40"/>
<path opacity="0.5" d="M313.636 211.527C313.636 272.346 256.907 321.65 186.929 321.65C116.951 321.65 60.2222 272.346 60.2222 211.527C60.2222 150.708 116.951 101.404 186.929 101.404C256.907 101.404 313.636 150.708 313.636 211.527Z" stroke="#2D2E40"/>
<path opacity="0.25" d="M350.991 211.527C350.991 290.277 277.538 354.117 186.929 354.117C96.3195 354.117 22.8662 290.277 22.8662 211.527C22.8662 132.777 96.3195 68.9373 186.929 68.9373C277.538 68.9373 350.991 132.777 350.991 211.527Z" stroke="#2D2E40"/>
<g filter="url(#filter0_d)">
<path d="M316.775 134.309H71.8071C64.6865 134.309 58.9141 139.023 58.9141 144.839V275.583C58.9141 281.398 64.6865 286.112 71.8071 286.112H316.775C323.895 286.112 329.668 281.398 329.668 275.583V144.839C329.668 139.023 323.895 134.309 316.775 134.309Z" fill="#535353"/>
<path d="M317.849 136.064H70.7325C64.7986 136.064 59.9883 139.993 59.9883 144.839V276.46C59.9883 281.306 64.7986 285.235 70.7325 285.235H317.849C323.783 285.235 328.593 281.306 328.593 276.46V144.839C328.593 139.993 323.783 136.064 317.849 136.064Z" fill="#1D1D25"/>
<mask id="mask1" mask-type="alpha" maskUnits="userSpaceOnUse" x="67" y="141" width="256" height="139">
<path d="M318.923 141.329H70.7325C68.9524 141.329 67.5093 142.507 67.5093 143.961V277.285C67.5093 278.739 68.9524 279.917 70.7325 279.917H318.923C320.704 279.917 322.147 278.739 322.147 277.285V143.961C322.147 142.507 320.704 141.329 318.923 141.329Z" fill="white"/>
</mask>
<g mask="url(#mask1)">
<path d="M318.923 141.329H70.7325C68.9524 141.329 67.5093 142.507 67.5093 143.961V277.285C67.5093 278.739 68.9524 279.917 70.7325 279.917H318.923C320.704 279.917 322.147 278.739 322.147 277.285V143.961C322.147 142.507 320.704 141.329 318.923 141.329Z" fill="url(#paint0_linear)"/>
<path d="M318.76 166.207H70.569C68.7888 166.207 67.3457 167.385 67.3457 168.839V277.391C67.3457 278.845 68.7888 280.023 70.569 280.023H318.76C320.54 280.023 321.983 278.845 321.983 277.391V168.839C321.983 167.385 320.54 166.207 318.76 166.207Z" fill="#F9F6F6"/>
<path d="M153.924 156.785H106.702C104.922 156.785 103.479 157.964 103.479 159.418V260.007C103.479 261.461 104.922 262.64 106.702 262.64H153.924C155.704 262.64 157.147 261.461 157.147 260.007V159.418C157.147 157.964 155.704 156.785 153.924 156.785Z" fill="white"/>
<path d="M282.956 156.785H169.505C167.725 156.785 166.282 157.964 166.282 159.418V260.007C166.282 261.461 167.725 262.64 169.505 262.64H282.956C284.736 262.64 286.179 261.461 286.179 260.007V159.418C286.179 157.964 284.736 156.785 282.956 156.785Z" fill="white"/>
<path d="M277.816 162.406H174.643C172.863 162.406 171.42 163.584 171.42 165.038V184.598C171.42 186.052 172.863 187.23 174.643 187.23H277.816C279.597 187.23 281.04 186.052 281.04 184.598V165.038C281.04 163.584 279.597 162.406 277.816 162.406Z" fill="#E7E7E7"/>
<path d="M200.74 192.383H174.643C172.863 192.383 171.42 193.561 171.42 195.015V214.575C171.42 216.029 172.863 217.207 174.643 217.207H200.74C202.52 217.207 203.963 216.029 203.963 214.575V195.015C203.963 193.561 202.52 192.383 200.74 192.383Z" fill="#E7E7E7"/>
<path d="M277.816 192.383H215.18C213.4 192.383 211.957 193.561 211.957 195.015V214.575C211.957 216.029 213.4 217.207 215.18 217.207H277.816C279.596 217.207 281.04 216.029 281.04 214.575V195.015C281.04 193.561 279.596 192.383 277.816 192.383Z" fill="#E7E7E7"/>
</g>
<g opacity="0.098">
<path opacity="0.098" d="M199.255 128.167H193.754C193.457 128.167 193.217 128.363 193.217 128.605C193.217 128.848 193.457 129.044 193.754 129.044H199.255C199.552 129.044 199.792 128.848 199.792 128.605C199.792 128.363 199.552 128.167 199.255 128.167Z" fill="#4A5166"/>
<path opacity="0.098" d="M202.349 128.167H201.877C201.58 128.167 201.339 128.363 201.339 128.605C201.339 128.848 201.58 129.044 201.877 129.044H202.349C202.646 129.044 202.887 128.848 202.887 128.605C202.887 128.363 202.646 128.167 202.349 128.167Z" fill="#4A5166"/>
</g>
<mask id="mask2" mask-type="alpha" maskUnits="userSpaceOnUse" x="17" y="284" width="353" height="8">
<path d="M20.235 284.357H366.148C367.003 284.357 367.822 284.635 368.427 285.128C369.031 285.622 369.371 286.291 369.371 286.99V291.028H17.0117V286.99C17.0117 286.291 17.3513 285.622 17.9558 285.128C18.5603 284.635 19.3801 284.357 20.235 284.357V284.357Z" fill="white"/>
</mask>
<g mask="url(#mask2)">
<path d="M20.235 284.357H366.148C367.003 284.357 367.822 284.635 368.427 285.128C369.031 285.622 369.371 286.291 369.371 286.99V291.028H17.0117V286.99C17.0117 286.291 17.3513 285.622 17.9558 285.128C18.5603 284.635 19.3801 284.357 20.235 284.357V284.357Z" fill="#52526F"/>
<path d="M211.224 268.013H175.159C169.225 268.013 164.415 271.942 164.415 276.788V279.584C164.415 284.431 169.225 288.359 175.159 288.359H211.224C217.158 288.359 221.968 284.431 221.968 279.584V276.788C221.968 271.942 217.158 268.013 211.224 268.013Z" fill="#2F2F47"/>
</g>
<path d="M17.0117 291.377H369.421C369.421 292.075 369.082 292.745 368.477 293.239C367.873 293.732 367.053 294.01 366.198 294.01H20.235C19.3801 294.01 18.5603 293.732 17.9558 293.239C17.3513 292.745 17.0117 292.075 17.0117 291.377V291.377Z" fill="#393A56"/>
</g>
</g>
<defs>
<filter id="filter0_d" x="-22.9883" y="108.167" width="432.41" height="245.843" filterUnits="userSpaceOnUse" color-interpolation-filters="sRGB">
<feFlood flood-opacity="0" result="BackgroundImageFix"/>
<feColorMatrix in="SourceAlpha" type="matrix" values="0 0 0 0 0 0 0 0 0 0 0 0 0 0 0 0 0 0 127 0" result="hardAlpha"/>
<feOffset dy="20"/>
<feGaussianBlur stdDeviation="20"/>
<feColorMatrix type="matrix" values="0 0 0 0 0.421822 0 0 0 0 0.554338 0 0 0 0 0.89371 0 0 0 0.243444 0"/>
<feBlend mode="normal" in2="BackgroundImageFix" result="effect1_dropShadow"/>
<feBlend mode="normal" in="SourceGraphic" in2="effect1_dropShadow" result="shape"/>
</filter>
<linearGradient id="paint0_linear" x1="67.5093" y1="179.85" x2="250.518" y2="329.18" gradientUnits="userSpaceOnUse">
<stop stop-color="#FF8F71"/>
<stop offset="1" stop-color="#FF3E55"/>
</linearGradient>
</defs>
</svg>
