<svg width="720" height="1024" viewBox="0 0 720 1024" fill="none" xmlns="http://www.w3.org/2000/svg">
<mask id="mask0" mask-type="alpha" maskUnits="userSpaceOnUse" x="0" y="0" width="720" height="1024">
<rect width="720" height="1024" fill="#C4C4C4"/>
</mask>
<g mask="url(#mask0)">
<path opacity="0.5" d="M445.5 510C445.5 693.635 296.635 842.5 113 842.5C-70.6347 842.5 -219.5 693.635 -219.5 510V508C-219.5 324.365 -70.6347 175.5 113 175.5C296.635 175.5 445.5 324.365 445.5 508V510Z" stroke="#2D2E40"/>
<path opacity="0.25" d="M504.5 510C504.5 726.219 329.219 901.5 113 901.5C-103.219 901.5 -278.5 726.219 -278.5 510V508C-278.5 291.781 -103.219 116.5 113 116.5C329.219 116.5 504.5 291.781 504.5 508V510Z" stroke="#2D2E40"/>
<path opacity="0.08" d="M388 510C388 661.878 264.878 785 113 785C-38.8783 785 -162 661.878 -162 510V508C-162 356.122 -38.8783 233 113 233C264.878 233 388 356.122 388 508V510Z" fill="#2D2E40"/>
<g filter="url(#filter0_d)">
<path d="M519 324H5C-1.62742 324 -7 329.373 -7 336V680C-7 686.627 -1.62742 692 5 692H519C525.627 692 531 686.627 531 680V336C531 329.373 525.627 324 519 324Z" fill="#535353"/>
<path d="M518 327H6C0.477152 327 -4 331.477 -4 337V679C-4 684.523 0.477152 689 6 689H518C523.523 689 528 684.523 528 679V337C528 331.477 523.523 327 518 327Z" fill="#1D1D25"/>
<mask id="mask1" mask-type="alpha" maskUnits="userSpaceOnUse" x="10" y="340" width="506" height="336">
<path d="M513 340H13C11.3431 340 10 341.343 10 343V672.872C10 674.529 11.3431 675.872 13 675.872H513C514.657 675.872 516 674.529 516 672.872V343C516 341.343 514.657 340 513 340Z" fill="white"/>
</mask>
<g mask="url(#mask1)">
<path d="M513 340H13C11.3431 340 10 341.343 10 343V672.872C10 674.529 11.3431 675.872 13 675.872H513C514.657 675.872 516 674.529 516 672.872V343C516 341.343 514.657 340 513 340Z" fill="url(#paint0_linear)"/>
<path d="M512.675 400.293H12.675C11.0181 400.293 9.67499 401.636 9.67499 403.293V673.131C9.67499 674.788 11.0181 676.131 12.675 676.131H512.675C514.332 676.131 515.675 674.788 515.675 673.131V403.293C515.675 401.636 514.332 400.293 512.675 400.293Z" fill="#F9F6F6"/>
<path d="M185.121 377.46H84.475C82.8182 377.46 81.475 378.803 81.475 380.46V631.001C81.475 632.658 82.8182 634.001 84.475 634.001H185.121C186.778 634.001 188.121 632.658 188.121 631.001V380.46C188.121 378.803 186.778 377.46 185.121 377.46Z" fill="white"/>
<path d="M441.524 377.46H209.273C207.616 377.46 206.273 378.803 206.273 380.46V631.001C206.273 632.658 207.616 634.001 209.273 634.001H441.524C443.181 634.001 444.524 632.658 444.524 631.001V380.46C444.524 378.803 443.181 377.46 441.524 377.46Z" fill="white"/>
<path d="M431.314 391.082H219.484C217.827 391.082 216.484 392.425 216.484 394.082V448.244C216.484 449.901 217.827 451.244 219.484 451.244H431.314C432.971 451.244 434.314 449.901 434.314 448.244V394.082C434.314 392.425 432.971 391.082 431.314 391.082Z" fill="#E7E7E7"/>
<path d="M278.152 463.73H219.484C217.827 463.73 216.484 465.073 216.484 466.73V520.892C216.484 522.549 217.827 523.892 219.484 523.892H278.152C279.809 523.892 281.152 522.549 281.152 520.892V466.73C281.152 465.073 279.809 463.73 278.152 463.73Z" fill="#E7E7E7"/>
<path d="M431.314 463.73H300.036C298.379 463.73 297.036 465.073 297.036 466.73V520.892C297.036 522.549 298.379 523.892 300.036 523.892H431.314C432.971 523.892 434.314 522.549 434.314 520.892V466.73C434.314 465.073 432.971 463.73 431.314 463.73Z" fill="#E7E7E7"/>
</g>
<g opacity="0.098">
<path opacity="0.098" d="M272.1 308H261.5C260.672 308 260 308.672 260 309.5C260 310.328 260.672 311 261.5 311H272.1C272.928 311 273.6 310.328 273.6 309.5C273.6 308.672 272.928 308 272.1 308Z" fill="#4A5166"/>
<path opacity="0.098" d="M278.5 308H278.3C277.472 308 276.8 308.672 276.8 309.5C276.8 310.328 277.472 311 278.3 311H278.5C279.328 311 280 310.328 280 309.5C280 308.672 279.328 308 278.5 308Z" fill="#4A5166"/>
</g>
<mask id="mask2" mask-type="alpha" maskUnits="userSpaceOnUse" x="-89" y="688" width="699" height="18">
<path d="M-86 688H606.9C607.696 688 608.459 688.316 609.021 688.879C609.584 689.441 609.9 690.204 609.9 691V705.105H-89V691C-89 690.204 -88.6839 689.441 -88.1213 688.879C-87.5587 688.316 -86.7956 688 -86 688V688Z" fill="white"/>
</mask>
<g mask="url(#mask2)">
<path d="M-86 688H606.9C607.696 688 608.459 688.316 609.021 688.879C609.584 689.441 609.9 690.204 609.9 691V705.105H-89V691C-89 690.204 -88.6839 689.441 -88.1213 688.879C-87.5587 688.316 -86.7956 688 -86 688V688Z" fill="#52526F"/>
<path d="M307.527 646.092H213.371C207.848 646.092 203.371 650.569 203.371 656.092V688.263C203.371 693.786 207.848 698.263 213.371 698.263H307.527C313.05 698.263 317.527 693.786 317.527 688.263V656.092C317.527 650.569 313.05 646.092 307.527 646.092Z" fill="#2F2F47"/>
</g>
<path d="M-89 705H610C610 706.591 609.368 708.117 608.243 709.243C607.117 710.368 605.591 711 604 711H-83C-84.5913 711 -86.1174 710.368 -87.2426 709.243C-88.3679 708.117 -89 706.591 -89 705V705Z" fill="#393A56"/>
</g>
</g>
<defs>
<filter id="filter0_d" x="-129" y="288" width="779" height="483" filterUnits="userSpaceOnUse" color-interpolation-filters="sRGB">
<feFlood flood-opacity="0" result="BackgroundImageFix"/>
<feColorMatrix in="SourceAlpha" type="matrix" values="0 0 0 0 0 0 0 0 0 0 0 0 0 0 0 0 0 0 127 0" result="hardAlpha"/>
<feOffset dy="20"/>
<feGaussianBlur stdDeviation="20"/>
<feColorMatrix type="matrix" values="0 0 0 0 0.421822 0 0 0 0 0.554338 0 0 0 0 0.89371 0 0 0 0.243444 0"/>
<feBlend mode="normal" in2="BackgroundImageFix" result="effect1_dropShadow"/>
<feBlend mode="normal" in="SourceGraphic" in2="effect1_dropShadow" result="shape"/>
</filter>
<linearGradient id="paint0_linear" x1="10" y1="433.943" x2="429.429" y2="712.35" gradientUnits="userSpaceOnUse">
<stop stop-color="#FF8F71"/>
<stop offset="1" stop-color="#FF3E55"/>
</linearGradient>
</defs>
</svg>
