<svg width="375" height="347" viewBox="0 0 375 347" fill="none" xmlns="http://www.w3.org/2000/svg">
<g clip-path="url(#clip0)">
<path d="M156.25 14.9827H47.554C39.2998 14.9827 32.6084 20.8857 32.6084 28.1675V255.306C32.6084 262.587 39.2998 268.49 47.554 268.49H156.25C164.504 268.49 171.195 262.587 171.195 255.306V28.1675C171.195 20.8857 164.504 14.9827 156.25 14.9827Z" fill="url(#paint0_linear)"/>
<path d="M71.3315 148.365V133.216H77.6603C78.8383 133.216 79.856 133.376 80.7147 133.695C81.5734 134.016 82.2358 134.471 82.7018 135.061C83.1678 135.651 83.4015 136.345 83.4015 137.141C83.4015 137.866 83.2208 138.503 82.8614 139.051C82.5015 139.599 81.9742 140.046 81.3397 140.342C82.2228 140.64 82.9103 141.113 83.4008 141.761C83.8913 142.408 84.1366 143.172 84.1366 144.055C84.1366 144.936 83.875 145.697 83.3519 146.337C82.8288 146.978 82.0924 147.476 81.144 147.831C80.1957 148.186 79.0754 148.364 77.7833 148.364H71.3315V148.365ZM74.8641 135.839V139.318H77.2684C78.07 139.318 78.6868 139.172 79.1203 138.88C79.5537 138.588 79.7704 138.158 79.7704 137.589C79.7704 137.02 79.553 136.587 79.1203 136.288C78.6868 135.989 78.0693 135.84 77.2684 135.84H74.8635L74.8641 135.839ZM74.8641 145.74H77.6114C78.5272 145.74 79.2351 145.569 79.7337 145.228C80.2324 144.887 80.4817 144.396 80.4817 143.756C80.4817 143.116 80.2324 142.625 79.7337 142.284C79.2344 141.942 78.5272 141.771 77.6114 141.771H74.8641V145.74ZM86.32 148.365V132.447H89.7548V148.365H86.32ZM98.733 148.684C97.7684 148.684 96.8771 148.535 96.0591 148.237C95.2609 147.949 94.5353 147.525 93.9246 146.988C93.3152 146.449 92.8355 145.807 92.5143 145.1C92.1787 144.375 92.0116 143.585 92.0116 142.731C92.0116 141.878 92.1828 141.092 92.5265 140.374C92.8606 139.668 93.348 139.027 93.9613 138.486C94.5783 137.943 95.3124 137.515 96.1203 137.227C96.9464 136.928 97.8499 136.778 98.8309 136.778C99.7955 136.778 100.688 136.928 101.505 137.227C102.303 137.514 103.029 137.938 103.639 138.475C104.247 139.012 104.726 139.65 105.05 140.353C105.385 141.071 105.552 141.857 105.552 142.71C105.552 143.564 105.381 144.353 105.037 145.078C104.706 145.789 104.218 146.434 103.603 146.978C102.986 147.52 102.251 147.948 101.444 148.236C100.618 148.535 99.714 148.684 98.733 148.684V148.684ZM98.7819 145.996C99.4036 145.996 99.9593 145.854 100.45 145.569C100.941 145.285 101.329 144.897 101.616 144.406C101.902 143.916 102.045 143.358 102.045 142.731C102.045 142.106 101.902 141.547 101.616 141.056C101.329 140.566 100.941 140.178 100.45 139.894C99.9593 139.609 99.4036 139.467 98.7819 139.467C98.1603 139.467 97.6046 139.609 97.1142 139.894C96.623 140.178 96.2351 140.566 95.9484 141.056C95.6631 141.548 95.519 142.105 95.519 142.731C95.519 143.358 95.6624 143.916 95.9484 144.406C96.2351 144.897 96.623 145.285 97.1142 145.569C97.6046 145.854 98.1603 145.996 98.7819 145.996ZM113.132 148.044C112.342 148.049 111.56 147.904 110.839 147.618C110.136 147.339 109.506 146.936 108.987 146.433C108.455 145.916 108.039 145.316 107.76 144.662C107.466 143.987 107.319 143.258 107.319 142.476C107.319 141.665 107.47 140.914 107.772 140.225C108.06 139.556 108.494 138.943 109.048 138.422C109.59 137.913 110.241 137.503 110.962 137.216C111.689 136.925 112.478 136.778 113.329 136.778C114.163 136.778 114.915 136.925 115.586 137.216C116.255 137.507 116.83 137.944 117.254 138.485L117.327 137.099H120.492V147.02C120.492 147.888 120.333 148.677 120.014 149.389C119.711 150.078 119.247 150.703 118.652 151.224C118.053 151.742 117.339 152.145 116.555 152.408C115.745 152.685 114.85 152.824 113.869 152.824C112.904 152.824 112.037 152.692 111.268 152.429C110.524 152.179 109.842 151.806 109.257 151.33C108.689 150.866 108.23 150.308 107.908 149.687L111.195 148.983C111.478 149.386 111.87 149.72 112.336 149.954C112.802 150.189 113.329 150.306 113.918 150.306C114.556 150.306 115.107 150.181 115.573 149.933C116.042 149.682 116.42 149.319 116.665 148.887C116.927 148.439 117.058 147.916 117.058 147.319V146.402C116.614 146.915 116.038 147.328 115.377 147.607C114.698 147.899 113.95 148.044 113.132 148.044V148.044ZM113.967 145.398C114.571 145.398 115.108 145.266 115.573 145.004C116.042 144.738 116.427 144.371 116.69 143.937C116.968 143.489 117.107 142.981 117.107 142.411C117.107 141.842 116.968 141.334 116.69 140.886C116.427 140.452 116.042 140.085 115.573 139.819C115.107 139.556 114.572 139.424 113.967 139.424C113.362 139.424 112.826 139.556 112.36 139.819C111.891 140.085 111.507 140.452 111.244 140.886C110.965 141.334 110.827 141.843 110.827 142.411C110.827 142.981 110.966 143.489 111.244 143.937C111.522 144.385 111.894 144.74 112.36 145.004C112.826 145.267 113.361 145.398 113.967 145.398ZM123.24 148.365V137.098H126.404L126.527 138.805C126.854 138.208 127.296 137.749 127.851 137.429C128.408 137.109 129.062 136.949 129.815 136.949C130.043 136.949 130.272 136.967 130.501 137.002C130.73 137.038 130.934 137.084 131.114 137.14L130.746 140.085C130.567 140.029 130.382 139.989 130.194 139.968C130.003 139.946 129.81 139.936 129.618 139.936C128.669 139.936 127.942 140.189 127.435 140.693C126.927 141.198 126.674 141.913 126.674 142.837V148.364H123.24V148.365Z" fill="white"/>
<g filter="url(#filter0_d)">
<path d="M166.061 252.845C166.061 259.19 160.752 264.656 153.562 264.656H51.0365C43.8463 264.656 37.5949 259.19 37.5949 252.845V30.0009C37.5949 23.656 43.8463 19.0173 51.0365 19.0173H62.8891C65.3952 19.0173 66.3205 18.7644 66.4726 21.5674C66.5514 23.0237 67.1567 24.1552 68.1269 25.0919C69.0956 26.0113 70.4298 26.7664 71.9625 27.1901C73.0025 27.4778 74.1608 27.7379 75.2648 27.7379H129.443C130.548 27.7379 131.706 27.4178 132.746 27.1308C134.28 26.7071 135.613 25.9999 136.582 25.0979C137.552 24.178 138.157 23.0938 138.236 21.6381C138.387 18.8357 139.314 19.0173 141.82 19.0173H153.562C160.752 19.0173 166.061 23.656 166.061 30.0009V252.845V252.845ZM94.3252 20.1069H110.383C111.065 20.1069 111.619 20.4796 111.619 21.0148C111.619 21.55 111.065 21.9234 110.383 21.9234H94.3252C93.6425 21.9234 93.0902 21.55 93.0902 21.0148C93.0902 20.4796 93.6425 20.1069 94.3252 20.1069V20.1069ZM118.825 20.4197C118.825 20.8414 118.635 21.2458 118.297 21.544C117.959 21.8422 117.5 22.0097 117.022 22.0097C116.544 22.0097 116.086 21.8422 115.748 21.544C115.41 21.2458 115.22 20.8414 115.22 20.4197C115.22 19.998 115.41 19.5936 115.748 19.2954C116.086 18.9973 116.544 18.8297 117.022 18.8297C117.5 18.8297 117.959 18.9973 118.297 19.2954C118.635 19.5936 118.825 19.998 118.825 20.4197ZM173.884 71.3418V30.717C173.884 20.4425 164.446 12.1133 152.803 12.1133H50.3721C38.3633 12.1133 28.5365 20.7853 28.5365 31.3841V46.2703C28.2089 46.2703 27.8947 46.3851 27.663 46.5894C27.4312 46.7937 27.301 47.0708 27.3008 47.3599V54.9909C27.3008 55.28 27.431 55.5574 27.6627 55.7619C27.8944 55.9665 28.2087 56.0814 28.5365 56.0816V65.1653C28.2087 65.1655 27.8944 65.2805 27.6627 65.485C27.431 65.6896 27.3008 65.9669 27.3008 66.2561V82.6076C27.3011 82.8966 27.4315 83.1736 27.6632 83.3779C27.8948 83.5822 28.209 83.697 28.5365 83.6972V89.1479C28.209 89.148 27.8948 89.2629 27.6632 89.4671C27.4315 89.6714 27.3011 89.9485 27.3008 90.2374V106.59C27.3008 106.879 27.431 107.156 27.6627 107.361C27.8944 107.565 28.2087 107.68 28.5365 107.68V253.682C28.5365 264.313 38.3932 273.014 50.4407 273.014H152.803C164.397 273.014 173.884 264.641 173.884 254.409V101.501H174.295C174.458 101.502 174.618 101.473 174.768 101.419C174.918 101.364 175.055 101.284 175.17 101.182C175.284 101.081 175.375 100.961 175.438 100.829C175.5 100.696 175.532 100.555 175.532 100.411V72.4326C175.532 71.8303 174.979 71.3418 174.295 71.3418H173.884V71.3418Z" fill="black"/>
</g>
<path d="M166.061 252.845C166.061 259.19 160.752 264.656 153.562 264.656H51.0365C43.8463 264.656 37.5949 259.19 37.5949 252.845V30.0009C37.5949 23.656 43.8463 19.0173 51.0365 19.0173H62.8891C65.3952 19.0173 66.3205 18.7644 66.4726 21.5674C66.5514 23.0237 67.1567 24.1552 68.1269 25.0919C69.0956 26.0113 70.4298 26.7664 71.9625 27.1901C73.0025 27.4778 74.1608 27.7379 75.2648 27.7379H129.443C130.548 27.7379 131.706 27.4178 132.746 27.1308C134.28 26.7071 135.613 25.9999 136.582 25.0979C137.552 24.178 138.157 23.0938 138.236 21.6381C138.387 18.8357 139.314 19.0173 141.82 19.0173H153.562C160.752 19.0173 166.061 23.656 166.061 30.0009V252.845V252.845ZM94.3252 20.1069H110.383C111.065 20.1069 111.619 20.4796 111.619 21.0148C111.619 21.55 111.065 21.9234 110.383 21.9234H94.3252C93.6425 21.9234 93.0902 21.55 93.0902 21.0148C93.0902 20.4796 93.6425 20.1069 94.3252 20.1069V20.1069ZM118.825 20.4197C118.825 20.8414 118.635 21.2458 118.297 21.544C117.959 21.8422 117.5 22.0097 117.022 22.0097C116.544 22.0097 116.086 21.8422 115.748 21.544C115.41 21.2458 115.22 20.8414 115.22 20.4197C115.22 19.998 115.41 19.5936 115.748 19.2954C116.086 18.9973 116.544 18.8297 117.022 18.8297C117.5 18.8297 117.959 18.9973 118.297 19.2954C118.635 19.5936 118.825 19.998 118.825 20.4197ZM173.884 71.3418V30.717C173.884 20.4425 164.446 12.1133 152.803 12.1133H50.3721C38.3633 12.1133 28.5365 20.7853 28.5365 31.3841V46.2703C28.2089 46.2703 27.8947 46.3851 27.663 46.5894C27.4312 46.7937 27.301 47.0708 27.3008 47.3599V54.9909C27.3008 55.28 27.431 55.5574 27.6627 55.7619C27.8944 55.9665 28.2087 56.0814 28.5365 56.0816V65.1653C28.2087 65.1655 27.8944 65.2805 27.6627 65.485C27.431 65.6896 27.3008 65.9669 27.3008 66.2561V82.6076C27.3011 82.8966 27.4315 83.1736 27.6632 83.3779C27.8948 83.5822 28.209 83.697 28.5365 83.6972V89.1479C28.209 89.148 27.8948 89.2629 27.6632 89.4671C27.4315 89.6714 27.3011 89.9485 27.3008 90.2374V106.59C27.3008 106.879 27.431 107.156 27.6627 107.361C27.8944 107.565 28.2087 107.68 28.5365 107.68V253.682C28.5365 264.313 38.3932 273.014 50.4407 273.014H152.803C164.397 273.014 173.884 264.641 173.884 254.409V101.501H174.295C174.458 101.502 174.618 101.473 174.768 101.419C174.918 101.364 175.055 101.284 175.17 101.182C175.284 101.081 175.375 100.961 175.438 100.829C175.5 100.696 175.532 100.555 175.532 100.411V72.4326C175.532 71.8303 174.979 71.3418 174.295 71.3418H173.884V71.3418Z" fill="#1D1D25"/>
<path fill-rule="evenodd" clip-rule="evenodd" d="M110.383 20.1069H94.3251C93.6423 20.1069 93.0894 20.4808 93.0894 21.016C93.0894 21.5506 93.6423 21.924 94.3258 21.924H110.383C111.066 21.924 111.619 21.5506 111.619 21.016C111.619 20.4808 111.066 20.1069 110.383 20.1069V20.1069ZM117.023 18.8303C116.545 18.8305 116.086 18.9981 115.749 19.2964C115.411 19.5947 115.221 19.9992 115.221 20.4209C115.221 20.8426 115.411 21.2469 115.75 21.545C116.088 21.8431 116.546 22.0104 117.024 22.0103C117.502 22.0101 117.96 21.8424 118.298 21.5441C118.636 21.2459 118.826 20.8414 118.826 20.4197C118.826 19.998 118.636 19.5937 118.297 19.2956C117.959 18.9975 117.501 18.8302 117.023 18.8303" fill="black"/>
<path d="M328.125 52.7395H219.429C211.175 52.7395 204.483 58.6425 204.483 65.9243V293.062C204.483 300.344 211.175 306.247 219.429 306.247H328.125C336.379 306.247 343.07 300.344 343.07 293.062V65.9243C343.07 58.6425 336.379 52.7395 328.125 52.7395Z" fill="url(#paint1_linear)"/>
<path d="M322.917 56.3352H224.184C215.93 56.3352 209.239 62.2382 209.239 69.52V291.457C209.239 298.739 215.93 304.642 224.184 304.642H322.917C331.172 304.642 337.863 298.739 337.863 291.457V69.52C337.863 62.2382 331.172 56.3352 322.917 56.3352Z" fill="white"/>
<path d="M322.917 56.3352H224.184C215.93 56.3352 209.239 62.2382 209.239 69.52V87.0612C209.239 94.343 215.93 100.246 224.184 100.246H322.917C331.172 100.246 337.863 94.343 337.863 87.0612V69.52C337.863 62.2382 331.172 56.3352 322.917 56.3352Z" fill="url(#paint2_linear)"/>
<g filter="url(#filter1_d)">
<path d="M327.44 84.0413H219.662C218.161 84.0413 216.945 85.1145 216.945 86.4385V116.668C216.945 117.992 218.161 119.065 219.662 119.065H327.44C328.941 119.065 330.157 117.992 330.157 116.668V86.4385C330.157 85.1145 328.941 84.0413 327.44 84.0413Z" fill="black"/>
</g>
<path d="M327.44 84.0413H219.662C218.161 84.0413 216.945 85.1145 216.945 86.4385V116.668C216.945 117.992 218.161 119.065 219.662 119.065H327.44C328.941 119.065 330.157 117.992 330.157 116.668V86.4385C330.157 85.1145 328.941 84.0413 327.44 84.0413Z" fill="white"/>
<g filter="url(#filter2_d)">
<path d="M327.44 127.429H219.662C218.161 127.429 216.945 128.503 216.945 129.827V160.056C216.945 161.38 218.161 162.454 219.662 162.454H327.44C328.941 162.454 330.157 161.38 330.157 160.056V129.827C330.157 128.503 328.941 127.429 327.44 127.429Z" fill="black"/>
</g>
<path d="M327.44 127.429H219.662C218.161 127.429 216.945 128.503 216.945 129.827V160.056C216.945 161.38 218.161 162.454 219.662 162.454H327.44C328.941 162.454 330.157 161.38 330.157 160.056V129.827C330.157 128.503 328.941 127.429 327.44 127.429Z" fill="white"/>
<g filter="url(#filter3_d)">
<path d="M327.44 170.818H219.662C218.161 170.818 216.945 171.891 216.945 173.215V203.445C216.945 204.769 218.161 205.842 219.662 205.842H327.44C328.941 205.842 330.157 204.769 330.157 203.445V173.215C330.157 171.891 328.941 170.818 327.44 170.818Z" fill="black"/>
</g>
<path d="M327.44 170.818H219.662C218.161 170.818 216.945 171.891 216.945 173.215V203.445C216.945 204.769 218.161 205.842 219.662 205.842H327.44C328.941 205.842 330.157 204.769 330.157 203.445V173.215C330.157 171.891 328.941 170.818 327.44 170.818Z" fill="white"/>
<g filter="url(#filter4_d)">
<path d="M327.44 214.207H219.662C218.161 214.207 216.945 215.28 216.945 216.604V246.834C216.945 248.157 218.161 249.231 219.662 249.231H327.44C328.941 249.231 330.157 248.157 330.157 246.834V216.604C330.157 215.28 328.941 214.207 327.44 214.207Z" fill="black"/>
</g>
<path d="M327.44 214.207H219.662C218.161 214.207 216.945 215.28 216.945 216.604V246.834C216.945 248.157 218.161 249.231 219.662 249.231H327.44C328.941 249.231 330.157 248.157 330.157 246.834V216.604C330.157 215.28 328.941 214.207 327.44 214.207Z" fill="white"/>
<g filter="url(#filter5_d)">
<path d="M327.44 257.595H219.662C218.161 257.595 216.945 258.668 216.945 259.992V290.222C216.945 291.546 218.161 292.619 219.662 292.619H327.44C328.941 292.619 330.157 291.546 330.157 290.222V259.992C330.157 258.668 328.941 257.595 327.44 257.595Z" fill="black"/>
</g>
<path d="M327.44 257.595H219.662C218.161 257.595 216.945 258.668 216.945 259.992V290.222C216.945 291.546 218.161 292.619 219.662 292.619H327.44C328.941 292.619 330.157 291.546 330.157 290.222V259.992C330.157 258.668 328.941 257.595 327.44 257.595Z" fill="white"/>
<path d="M243.207 186.121V170.972H249.535C250.713 170.972 251.731 171.132 252.59 171.452C253.448 171.772 254.111 172.227 254.577 172.818C255.043 173.408 255.277 174.101 255.277 174.898C255.277 175.623 255.096 176.26 254.736 176.808C254.377 177.355 253.849 177.803 253.215 178.099C254.098 178.397 254.785 178.87 255.276 179.517C255.766 180.164 256.012 180.929 256.012 181.811C256.012 182.693 255.75 183.453 255.227 184.094C254.704 184.734 253.967 185.232 253.019 185.588C252.071 185.943 250.95 186.121 249.658 186.121H243.207V186.121ZM246.739 173.596V177.074H249.143C249.945 177.074 250.562 176.929 250.995 176.637C251.429 176.345 251.645 175.915 251.645 175.346C251.645 174.777 251.428 174.343 250.995 174.044C250.562 173.746 249.944 173.597 249.143 173.597H246.738L246.739 173.596ZM246.739 183.497H249.486C250.402 183.497 251.11 183.326 251.609 182.985C252.107 182.643 252.357 182.152 252.357 181.512C252.357 180.872 252.107 180.381 251.609 180.04C251.109 179.699 250.402 179.528 249.486 179.528H246.739V183.497ZM258.195 186.121V170.204H261.63V186.121H258.195ZM270.608 186.441C269.643 186.441 268.752 186.292 267.934 185.993C267.136 185.706 266.41 185.282 265.8 184.745C265.19 184.206 264.71 183.563 264.389 182.856C264.054 182.131 263.887 181.341 263.887 180.488C263.887 179.635 264.058 178.849 264.401 178.13C264.736 177.424 265.223 176.783 265.836 176.242C266.453 175.7 267.187 175.272 267.995 174.983C268.821 174.684 269.725 174.535 270.706 174.535C271.671 174.535 272.562 174.685 273.38 174.983C274.178 175.271 274.904 175.695 275.514 176.232C276.122 176.768 276.601 177.407 276.925 178.109C277.26 178.827 277.427 179.614 277.427 180.467C277.427 181.32 277.256 182.11 276.912 182.835C276.581 183.545 276.093 184.191 275.478 184.734C274.86 185.277 274.126 185.705 273.319 185.993C272.493 186.292 271.589 186.441 270.608 186.441V186.441ZM270.657 183.752C271.279 183.752 271.834 183.61 272.325 183.326C272.816 183.042 273.204 182.654 273.49 182.163C273.776 181.672 273.92 181.114 273.92 180.488C273.92 179.862 273.776 179.304 273.49 178.813C273.204 178.323 272.816 177.935 272.325 177.65C271.834 177.366 271.279 177.224 270.657 177.224C270.035 177.224 269.48 177.366 268.989 177.65C268.498 177.935 268.11 178.323 267.823 178.813C267.538 179.304 267.394 179.862 267.394 180.488C267.394 181.114 267.537 181.672 267.823 182.163C268.11 182.654 268.498 183.042 268.989 183.326C269.48 183.61 270.035 183.752 270.657 183.752ZM285.007 185.801C284.217 185.806 283.435 185.66 282.714 185.374C282.011 185.095 281.381 184.692 280.862 184.19C280.33 183.673 279.914 183.072 279.635 182.419C279.341 181.744 279.194 181.014 279.194 180.232C279.194 179.421 279.345 178.671 279.647 177.981C279.935 177.312 280.368 176.7 280.923 176.178C281.465 175.67 282.116 175.26 282.837 174.973C283.564 174.681 284.353 174.535 285.204 174.535C286.038 174.535 286.79 174.681 287.461 174.973C288.13 175.263 288.705 175.7 289.129 176.242L289.202 174.855H292.367V184.777C292.367 185.644 292.208 186.434 291.889 187.145C291.586 187.834 291.122 188.46 290.527 188.98C289.928 189.498 289.214 189.901 288.43 190.164C287.62 190.442 286.725 190.58 285.744 190.58C284.779 190.58 283.912 190.449 283.143 190.185C282.399 189.936 281.717 189.563 281.132 189.087C280.564 188.623 280.105 188.064 279.783 187.444L283.07 186.74C283.352 187.142 283.745 187.476 284.211 187.711C284.677 187.945 285.204 188.063 285.793 188.063C286.431 188.063 286.982 187.938 287.448 187.689C287.917 187.438 288.295 187.076 288.54 186.643C288.802 186.196 288.933 185.673 288.933 185.076V184.158C288.489 184.672 287.913 185.085 287.252 185.363C286.573 185.655 285.825 185.801 285.007 185.801V185.801ZM285.842 183.155C286.446 183.155 286.983 183.023 287.448 182.761C287.917 182.495 288.302 182.127 288.565 181.694C288.843 181.246 288.982 180.737 288.982 180.168C288.982 179.599 288.843 179.09 288.565 178.643C288.302 178.209 287.917 177.842 287.448 177.576C286.982 177.312 286.447 177.18 285.842 177.18C285.237 177.18 284.701 177.312 284.235 177.576C283.766 177.842 283.382 178.209 283.119 178.643C282.84 179.09 282.702 179.599 282.702 180.168C282.702 180.737 282.841 181.246 283.119 181.694C283.397 182.141 283.769 182.497 284.235 182.761C284.701 183.024 285.236 183.155 285.842 183.155ZM295.115 186.121V174.854H298.279L298.401 176.561C298.729 175.964 299.17 175.505 299.726 175.185C300.283 174.865 300.937 174.705 301.69 174.705C301.918 174.705 302.147 174.723 302.376 174.759C302.605 174.795 302.809 174.841 302.989 174.897L302.621 177.842C302.442 177.785 302.257 177.746 302.069 177.725C301.878 177.703 301.685 177.692 301.492 177.692C300.544 177.692 299.817 177.945 299.31 178.45C298.802 178.955 298.549 179.669 298.549 180.594V186.12H295.115V186.121Z" fill="white"/>
<g filter="url(#filter6_d)">
<path d="M337.936 290.602C337.936 296.946 332.627 302.413 325.437 302.413H222.912C215.721 302.413 209.47 296.946 209.47 290.602V67.7575C209.47 61.4126 215.721 56.7739 222.912 56.7739H234.764C237.27 56.7739 238.195 56.521 238.348 59.324C238.426 60.7803 239.032 61.9118 240.002 62.8485C240.971 63.7679 242.305 64.523 243.837 64.9467C244.878 65.2344 246.036 65.4945 247.14 65.4945H301.318C302.423 65.4945 303.581 65.1744 304.621 64.8874C306.155 64.4636 307.488 63.7565 308.457 62.8545C309.427 61.9346 310.032 60.8504 310.111 59.3947C310.262 56.5923 311.189 56.7739 313.695 56.7739H325.437C332.627 56.7739 337.936 61.4126 337.936 67.7575V290.602V290.602ZM266.2 57.8635H282.258C282.94 57.8635 283.494 58.2362 283.494 58.7714C283.494 59.3066 282.94 59.68 282.258 59.68H266.2C265.518 59.68 264.965 59.3066 264.965 58.7714C264.965 58.2362 265.518 57.8635 266.2 57.8635V57.8635ZM290.7 58.1763C290.7 58.598 290.51 59.0024 290.172 59.3006C289.834 59.5988 289.375 59.7663 288.897 59.7663C288.419 59.7663 287.961 59.5988 287.623 59.3006C287.285 59.0024 287.095 58.598 287.095 58.1763C287.095 57.7546 287.285 57.3502 287.623 57.052C287.961 56.7538 288.419 56.5863 288.897 56.5863C289.375 56.5863 289.834 56.7538 290.172 57.052C290.51 57.3502 290.7 57.7546 290.7 58.1763ZM345.759 109.098V68.4736C345.759 58.1991 336.321 49.8699 324.678 49.8699H222.247C210.238 49.8699 200.412 58.5419 200.412 69.1407V84.0269C200.084 84.0269 199.77 84.1417 199.538 84.346C199.306 84.5503 199.176 84.8274 199.176 85.1164V92.7474C199.176 93.0366 199.306 93.314 199.538 93.5185C199.769 93.723 200.084 93.838 200.412 93.8382V102.922C200.084 102.922 199.769 103.037 199.538 103.242C199.306 103.446 199.176 103.723 199.176 104.013V120.364C199.176 120.653 199.306 120.93 199.538 121.134C199.77 121.339 200.084 121.454 200.412 121.454V126.904C200.084 126.905 199.77 127.019 199.538 127.224C199.306 127.428 199.176 127.705 199.176 127.994V144.346C199.176 144.635 199.306 144.913 199.538 145.117C199.769 145.322 200.084 145.437 200.412 145.437V291.438C200.412 302.07 210.268 310.77 222.316 310.77H324.678C336.272 310.77 345.759 302.398 345.759 292.166V139.258H346.17C346.333 139.258 346.493 139.23 346.643 139.175C346.793 139.12 346.93 139.04 347.045 138.939C347.159 138.838 347.251 138.717 347.313 138.585C347.375 138.453 347.407 138.311 347.407 138.168V110.189C347.407 109.587 346.854 109.098 346.17 109.098H345.759V109.098Z" fill="black"/>
</g>
<path d="M337.936 290.602C337.936 296.946 332.627 302.413 325.437 302.413H222.912C215.721 302.413 209.47 296.946 209.47 290.602V67.7575C209.47 61.4126 215.721 56.7739 222.912 56.7739H234.764C237.27 56.7739 238.195 56.521 238.348 59.324C238.426 60.7803 239.032 61.9118 240.002 62.8485C240.971 63.7679 242.305 64.523 243.837 64.9467C244.878 65.2344 246.036 65.4945 247.14 65.4945H301.318C302.423 65.4945 303.581 65.1744 304.621 64.8874C306.155 64.4636 307.488 63.7565 308.457 62.8545C309.427 61.9346 310.032 60.8504 310.111 59.3947C310.262 56.5923 311.189 56.7739 313.695 56.7739H325.437C332.627 56.7739 337.936 61.4126 337.936 67.7575V290.602V290.602ZM266.2 57.8635H282.258C282.94 57.8635 283.494 58.2362 283.494 58.7714C283.494 59.3066 282.94 59.68 282.258 59.68H266.2C265.518 59.68 264.965 59.3066 264.965 58.7714C264.965 58.2362 265.518 57.8635 266.2 57.8635V57.8635ZM290.7 58.1763C290.7 58.598 290.51 59.0024 290.172 59.3006C289.834 59.5988 289.375 59.7663 288.897 59.7663C288.419 59.7663 287.961 59.5988 287.623 59.3006C287.285 59.0024 287.095 58.598 287.095 58.1763C287.095 57.7546 287.285 57.3502 287.623 57.052C287.961 56.7538 288.419 56.5863 288.897 56.5863C289.375 56.5863 289.834 56.7538 290.172 57.052C290.51 57.3502 290.7 57.7546 290.7 58.1763ZM345.759 109.098V68.4736C345.759 58.1991 336.321 49.8699 324.678 49.8699H222.247C210.238 49.8699 200.412 58.5419 200.412 69.1407V84.0269C200.084 84.0269 199.77 84.1417 199.538 84.346C199.306 84.5503 199.176 84.8274 199.176 85.1164V92.7474C199.176 93.0366 199.306 93.314 199.538 93.5185C199.769 93.723 200.084 93.838 200.412 93.8382V102.922C200.084 102.922 199.769 103.037 199.538 103.242C199.306 103.446 199.176 103.723 199.176 104.013V120.364C199.176 120.653 199.306 120.93 199.538 121.134C199.77 121.339 200.084 121.454 200.412 121.454V126.904C200.084 126.905 199.77 127.019 199.538 127.224C199.306 127.428 199.176 127.705 199.176 127.994V144.346C199.176 144.635 199.306 144.913 199.538 145.117C199.769 145.322 200.084 145.437 200.412 145.437V291.438C200.412 302.07 210.268 310.77 222.316 310.77H324.678C336.272 310.77 345.759 302.398 345.759 292.166V139.258H346.17C346.333 139.258 346.493 139.23 346.643 139.175C346.793 139.12 346.93 139.04 347.045 138.939C347.159 138.838 347.251 138.717 347.313 138.585C347.375 138.453 347.407 138.311 347.407 138.168V110.189C347.407 109.587 346.854 109.098 346.17 109.098H345.759V109.098Z" fill="#1D1D25"/>
<path fill-rule="evenodd" clip-rule="evenodd" d="M282.258 57.8634H266.2C265.517 57.8634 264.964 58.2374 264.964 58.7726C264.964 59.3072 265.517 59.6805 266.201 59.6805H282.258C282.941 59.6805 283.494 59.3072 283.494 58.7726C283.494 58.2374 282.941 57.8634 282.258 57.8634V57.8634ZM288.898 56.5869C288.42 56.5871 287.961 56.7547 287.624 57.053C287.286 57.3513 287.096 57.7558 287.096 58.1775C287.096 58.5992 287.286 59.0035 287.625 59.3016C287.963 59.5996 288.421 59.767 288.899 59.7668C289.377 59.7667 289.836 59.599 290.173 59.3007C290.511 59.0024 290.701 58.598 290.701 58.1763C290.701 57.7546 290.511 57.3502 290.172 57.0522C289.834 56.7541 289.376 56.5868 288.898 56.5869" fill="black"/>
</g>
<defs>
<filter id="filter0_d" x="-12.6992" y="-7.88672" width="228.231" height="340.9" filterUnits="userSpaceOnUse" color-interpolation-filters="sRGB">
<feFlood flood-opacity="0" result="BackgroundImageFix"/>
<feColorMatrix in="SourceAlpha" type="matrix" values="0 0 0 0 0 0 0 0 0 0 0 0 0 0 0 0 0 0 127 0" result="hardAlpha"/>
<feOffset dy="20"/>
<feGaussianBlur stdDeviation="20"/>
<feColorMatrix type="matrix" values="0 0 0 0 0.421822 0 0 0 0 0.554338 0 0 0 0 0.89371 0 0 0 0.243444 0"/>
<feBlend mode="normal" in2="BackgroundImageFix" result="effect1_dropShadow"/>
<feBlend mode="normal" in="SourceGraphic" in2="effect1_dropShadow" result="shape"/>
</filter>
<filter id="filter1_d" x="196.945" y="74.0413" width="153.213" height="75.0242" filterUnits="userSpaceOnUse" color-interpolation-filters="sRGB">
<feFlood flood-opacity="0" result="BackgroundImageFix"/>
<feColorMatrix in="SourceAlpha" type="matrix" values="0 0 0 0 0 0 0 0 0 0 0 0 0 0 0 0 0 0 127 0" result="hardAlpha"/>
<feOffset dy="10"/>
<feGaussianBlur stdDeviation="10"/>
<feColorMatrix type="matrix" values="0 0 0 0 0.421822 0 0 0 0 0.554338 0 0 0 0 0.89371 0 0 0 0.243444 0"/>
<feBlend mode="normal" in2="BackgroundImageFix" result="effect1_dropShadow"/>
<feBlend mode="normal" in="SourceGraphic" in2="effect1_dropShadow" result="shape"/>
</filter>
<filter id="filter2_d" x="196.945" y="117.429" width="153.213" height="75.0242" filterUnits="userSpaceOnUse" color-interpolation-filters="sRGB">
<feFlood flood-opacity="0" result="BackgroundImageFix"/>
<feColorMatrix in="SourceAlpha" type="matrix" values="0 0 0 0 0 0 0 0 0 0 0 0 0 0 0 0 0 0 127 0" result="hardAlpha"/>
<feOffset dy="10"/>
<feGaussianBlur stdDeviation="10"/>
<feColorMatrix type="matrix" values="0 0 0 0 0.421822 0 0 0 0 0.554338 0 0 0 0 0.89371 0 0 0 0.243444 0"/>
<feBlend mode="normal" in2="BackgroundImageFix" result="effect1_dropShadow"/>
<feBlend mode="normal" in="SourceGraphic" in2="effect1_dropShadow" result="shape"/>
</filter>
<filter id="filter3_d" x="196.945" y="160.818" width="153.213" height="75.0242" filterUnits="userSpaceOnUse" color-interpolation-filters="sRGB">
<feFlood flood-opacity="0" result="BackgroundImageFix"/>
<feColorMatrix in="SourceAlpha" type="matrix" values="0 0 0 0 0 0 0 0 0 0 0 0 0 0 0 0 0 0 127 0" result="hardAlpha"/>
<feOffset dy="10"/>
<feGaussianBlur stdDeviation="10"/>
<feColorMatrix type="matrix" values="0 0 0 0 0.421822 0 0 0 0 0.554338 0 0 0 0 0.89371 0 0 0 0.243444 0"/>
<feBlend mode="normal" in2="BackgroundImageFix" result="effect1_dropShadow"/>
<feBlend mode="normal" in="SourceGraphic" in2="effect1_dropShadow" result="shape"/>
</filter>
<filter id="filter4_d" x="196.945" y="204.207" width="153.213" height="75.0242" filterUnits="userSpaceOnUse" color-interpolation-filters="sRGB">
<feFlood flood-opacity="0" result="BackgroundImageFix"/>
<feColorMatrix in="SourceAlpha" type="matrix" values="0 0 0 0 0 0 0 0 0 0 0 0 0 0 0 0 0 0 127 0" result="hardAlpha"/>
<feOffset dy="10"/>
<feGaussianBlur stdDeviation="10"/>
<feColorMatrix type="matrix" values="0 0 0 0 0.421822 0 0 0 0 0.554338 0 0 0 0 0.89371 0 0 0 0.243444 0"/>
<feBlend mode="normal" in2="BackgroundImageFix" result="effect1_dropShadow"/>
<feBlend mode="normal" in="SourceGraphic" in2="effect1_dropShadow" result="shape"/>
</filter>
<filter id="filter5_d" x="196.945" y="247.595" width="153.213" height="75.0242" filterUnits="userSpaceOnUse" color-interpolation-filters="sRGB">
<feFlood flood-opacity="0" result="BackgroundImageFix"/>
<feColorMatrix in="SourceAlpha" type="matrix" values="0 0 0 0 0 0 0 0 0 0 0 0 0 0 0 0 0 0 127 0" result="hardAlpha"/>
<feOffset dy="10"/>
<feGaussianBlur stdDeviation="10"/>
<feColorMatrix type="matrix" values="0 0 0 0 0.421822 0 0 0 0 0.554338 0 0 0 0 0.89371 0 0 0 0.243444 0"/>
<feBlend mode="normal" in2="BackgroundImageFix" result="effect1_dropShadow"/>
<feBlend mode="normal" in="SourceGraphic" in2="effect1_dropShadow" result="shape"/>
</filter>
<filter id="filter6_d" x="159.176" y="29.8699" width="228.231" height="340.9" filterUnits="userSpaceOnUse" color-interpolation-filters="sRGB">
<feFlood flood-opacity="0" result="BackgroundImageFix"/>
<feColorMatrix in="SourceAlpha" type="matrix" values="0 0 0 0 0 0 0 0 0 0 0 0 0 0 0 0 0 0 127 0" result="hardAlpha"/>
<feOffset dy="20"/>
<feGaussianBlur stdDeviation="20"/>
<feColorMatrix type="matrix" values="0 0 0 0 0.421822 0 0 0 0 0.554338 0 0 0 0 0.89371 0 0 0 0.243444 0"/>
<feBlend mode="normal" in2="BackgroundImageFix" result="effect1_dropShadow"/>
<feBlend mode="normal" in="SourceGraphic" in2="effect1_dropShadow" result="shape"/>
</filter>
<linearGradient id="paint0_linear" x1="85.7856" y1="14.9827" x2="182.049" y2="241.249" gradientUnits="userSpaceOnUse">
<stop stop-color="#FF8F71"/>
<stop offset="1" stop-color="#FF3E55"/>
</linearGradient>
<linearGradient id="paint1_linear" x1="257.661" y1="52.7395" x2="353.924" y2="279.006" gradientUnits="userSpaceOnUse">
<stop stop-color="#FF8F71"/>
<stop offset="1" stop-color="#FF3E55"/>
</linearGradient>
<linearGradient id="paint2_linear" x1="209.239" y1="75.0026" x2="319.524" y2="123.383" gradientUnits="userSpaceOnUse">
<stop stop-color="#FF8F71"/>
<stop offset="1" stop-color="#FF3E55"/>
</linearGradient>
<clipPath id="clip0">
<rect width="375" height="347" fill="white"/>
</clipPath>
</defs>
</svg>
